<?xml version="1.0" encoding="UTF-8" standalone="no"?>
<!-- Created with Inkscape (http://www.inkscape.org/) -->

<svg
   xmlns:dc="http://purl.org/dc/elements/1.1/"
   xmlns:cc="http://creativecommons.org/ns#"
   xmlns:rdf="http://www.w3.org/1999/02/22-rdf-syntax-ns#"
   xmlns:svg="http://www.w3.org/2000/svg"
   xmlns="http://www.w3.org/2000/svg"
   xmlns:sodipodi="http://sodipodi.sourceforge.net/DTD/sodipodi-0.dtd"
   xmlns:inkscape="http://www.inkscape.org/namespaces/inkscape"
   id="svg2"
   version="1.1"
   inkscape:version="0.48.2 r9819"
   width="167.52499"
   height="47.698944"
   xml:space="preserve"
   sodipodi:docname="Logo.svg"><metadata
     id="metadata8"><rdf:RDF><cc:Work
         rdf:about=""><dc:format>image/svg+xml</dc:format><dc:type
           rdf:resource="http://purl.org/dc/dcmitype/StillImage" /><dc:title></dc:title></cc:Work></rdf:RDF></metadata><defs
     id="defs6"><clipPath
       clipPathUnits="userSpaceOnUse"
       id="clipPath20"><path
         d="m 0,24.474 89.28,0 0,-24.414 -89.28,0 0,24.414 z"
         id="path22"
         inkscape:connector-curvature="0" /></clipPath></defs><sodipodi:namedview
     pagecolor="#ffffff"
     bordercolor="#666666"
     borderopacity="1"
     objecttolerance="10"
     gridtolerance="10"
     guidetolerance="10"
     inkscape:pageopacity="0"
     inkscape:pageshadow="2"
     inkscape:window-width="1179"
     inkscape:window-height="798"
     id="namedview4"
     showgrid="false"
     fit-margin-top="1"
     fit-margin-left="0.4"
     fit-margin-right="0.4"
     fit-margin-bottom="1"
     inkscape:zoom="3.2024951"
     inkscape:cx="72.500753"
     inkscape:cy="13.836387"
     inkscape:window-x="75"
     inkscape:window-y="107"
     inkscape:window-maximized="0"
     inkscape:current-layer="g10"
     units="mm" /><g
     id="g10"
     inkscape:groupmode="layer"
     inkscape:label="SPECS_blue-blue_CMYK_S"
     transform="matrix(1.25,0,0,-1.25,27.955625,39.145425)"><g
       id="g4776"
       transform="matrix(1.4937675,0,0,1.4937675,-22.0445,-6.0421192)"><path
         inkscape:connector-curvature="0"
         d="m 78.079,10.304 c -0.414,0.433 -0.931,0.818 -1.547,1.161 -0.617,0.341 -1.334,0.674 -2.153,0.998 -0.757,0.297 -1.393,0.578 -1.911,0.845 -0.516,0.264 -0.933,0.549 -1.248,0.849 -0.316,0.302 -0.539,0.641 -0.674,1.013 -0.136,0.375 -0.202,0.818 -0.202,1.331 0,0.863 0.301,1.55 0.902,2.059 0.604,0.507 1.455,0.762 2.553,0.762 0.791,0 1.559,-0.099 2.303,-0.292 0.742,-0.195 1.405,-0.419 1.989,-0.68 l 0.905,2.107 c -0.665,0.312 -1.426,0.573 -2.282,0.774 -0.854,0.204 -1.817,0.302 -2.889,0.302 -0.873,0 -1.672,-0.11 -2.394,-0.335 -0.727,-0.225 -1.35,-0.552 -1.872,-0.977 -0.522,-0.429 -0.926,-0.954 -1.213,-1.574 -0.289,-0.621 -0.433,-1.328 -0.433,-2.119 0,-0.759 0.092,-1.431 0.276,-2.027 0.184,-0.593 0.467,-1.124 0.852,-1.592 0.384,-0.467 0.866,-0.89 1.456,-1.261 0.591,-0.375 1.287,-0.716 2.086,-1.035 0.838,-0.332 1.531,-0.6381 2.081,-0.9233 0.548,-0.2841 0.986,-0.5752 1.315,-0.8779 0.328,-0.3027 0.556,-0.6318 0.688,-0.9922 0.131,-0.3594 0.197,-0.7832 0.197,-1.2676 0,-1.0107 -0.344,-1.7841 -1.035,-2.3232 -0.687,-0.54 -1.753,-0.8096 -3.191,-0.8096 -0.45,0 -0.906,0.0323 -1.364,0.1026 C 70.815,3.5872 70.37,3.6741 69.937,3.7825 69.505,3.8919 69.095,4.013 68.702,4.1526 68.31,4.2952 67.961,4.4358 67.657,4.5794 l 0,-2.4004 c 0.582,-0.3096 1.313,-0.54 2.179,-0.6963 0.868,-0.1592 1.804,-0.2373 2.802,-0.2373 1.036,0 1.965,0.124 2.794,0.3711 0.827,0.2461 1.532,0.6094 2.107,1.0859 0.576,0.4766 1.019,1.0616 1.327,1.7471 0.313,0.6895 0.469,1.4687 0.469,2.3457 0,0.7725 -0.108,1.4443 -0.318,2.0088 -0.213,0.5674 -0.526,1.0693 -0.938,1.5 m -67.656,0 c -0.415,0.433 -0.931,0.818 -1.549,1.161 -0.614,0.341 -1.332,0.674 -2.152,0.998 -0.755,0.297 -1.392,0.578 -1.909,0.845 -0.517,0.264 -0.936,0.549 -1.25,0.849 -0.315,0.302 -0.54,0.641 -0.674,1.013 -0.135,0.375 -0.202,0.818 -0.202,1.331 0,0.863 0.3,1.55 0.905,2.059 0.603,0.507 1.451,0.762 2.55,0.762 0.793,0 1.56,-0.099 2.302,-0.292 0.742,-0.195 1.406,-0.419 1.99,-0.68 l 0.906,2.107 c -0.665,0.312 -1.426,0.573 -2.282,0.774 -0.855,0.204 -1.817,0.302 -2.887,0.302 -0.875,0 -1.673,-0.11 -2.397,-0.335 C 3.05,20.973 2.426,20.646 1.902,20.221 1.38,19.792 0.976,19.267 0.688,18.647 0.4,18.026 0.257,17.319 0.257,16.528 c 0,-0.759 0.092,-1.431 0.277,-2.027 0.184,-0.593 0.465,-1.124 0.85,-1.592 0.383,-0.467 0.867,-0.89 1.459,-1.261 C 3.431,11.273 4.126,10.932 4.927,10.613 5.765,10.281 6.457,9.9749 7.007,9.6897 7.556,9.4056 7.994,9.1145 8.323,8.8118 8.651,8.5091 8.88,8.18 9.01,7.8196 9.142,7.4602 9.207,7.0364 9.207,6.552 9.207,5.5413 8.863,4.7679 8.173,4.2288 7.485,3.6888 6.421,3.4192 4.981,3.4192 4.531,3.4192 4.076,3.4515 3.617,3.5218 3.158,3.5872 2.714,3.6741 2.283,3.7825 1.85,3.8919 1.437,4.013 1.046,4.1526 0.655,4.2952 0.304,4.4358 0,4.5794 L 0,2.179 C 0.585,1.8694 1.311,1.639 2.181,1.4827 3.05,1.3235 3.982,1.2454 4.981,1.2454 c 1.035,0 1.966,0.124 2.796,0.3711 0.827,0.2461 1.53,0.6094 2.105,1.0859 0.575,0.4766 1.019,1.0616 1.329,1.7471 0.311,0.6895 0.467,1.4687 0.467,2.3457 0,0.7725 -0.105,1.4443 -0.318,2.0088 -0.212,0.5674 -0.525,1.0693 -0.937,1.5 m 15.997,9.443 c -0.567,0.489 -1.288,0.864 -2.16,1.121 -0.874,0.255 -1.911,0.384 -3.118,0.384 l -4.887,0 0,-19.7371 2.512,0 0,7.6826 2.023,0 c 1.37,0 2.518,0.1719 3.451,0.5186 0.932,0.3449 1.68,0.8119 2.246,1.3889 0.567,0.581 0.976,1.25 1.222,2.005 0.247,0.758 0.372,1.544 0.372,2.365 0,0.917 -0.135,1.736 -0.405,2.455 -0.27,0.72 -0.69,1.326 -1.256,1.817 M 25.179,13.482 C 24.972,12.975 24.663,12.559 24.253,12.24 23.842,11.919 23.327,11.689 22.702,11.545 22.075,11.401 21.345,11.33 20.506,11.33 l -1.739,0 0,7.776 2.158,0 c 1.565,0 2.719,-0.309 3.456,-0.927 0.738,-0.614 1.106,-1.562 1.106,-2.838 0,-0.732 -0.101,-1.349 -0.308,-1.859 m 28.51,3.72 c 0.553,0.684 1.223,1.208 2.005,1.571 0.783,0.365 1.656,0.549 2.618,0.549 0.847,0 1.603,-0.105 2.268,-0.313 0.666,-0.206 1.284,-0.452 1.851,-0.74 l 1.051,2.104 c -0.71,0.378 -1.505,0.669 -2.388,0.867 -0.882,0.198 -1.809,0.293 -2.782,0.293 -1.456,0 -2.749,-0.245 -3.872,-0.74 -1.125,-0.494 -2.068,-1.19 -2.83,-2.08 -0.758,-0.89 -1.337,-1.958 -1.727,-3.199 -0.393,-1.241 -0.588,-2.611 -0.588,-4.104 0,-1.523 0.171,-2.9068 0.511,-4.1568 0.343,-1.251 0.868,-2.3232 1.575,-3.2139 0.708,-0.8906 1.601,-1.58 2.679,-2.0664 1.081,-0.4834 2.359,-0.7275 3.835,-0.7275 0.531,0 1.013,0.0146 1.451,0.0488 0.435,0.0293 0.846,0.0772 1.228,0.1406 0.383,0.0625 0.751,0.1436 1.102,0.2491 0.349,0.1035 0.701,0.2236 1.051,0.3593 l 0,2.1856 C 62.025,4.0218 61.316,3.8382 60.597,3.6829 59.874,3.5237 59.114,3.4456 58.312,3.4456 c -1.061,0 -1.987,0.1738 -2.778,0.5273 -0.794,0.3506 -1.455,0.8633 -1.985,1.5391 -0.532,0.6738 -0.93,1.5039 -1.197,2.4902 -0.263,0.9864 -0.398,2.1148 -0.398,3.3818 0,1.231 0.15,2.338 0.453,3.321 0.303,0.98 0.727,1.814 1.282,2.497"
         style="fill:#005293;fill-opacity:1;fill-rule:nonzero;stroke:none"
         id="path14" /><path
         d="m 88.3,24.474 -1.062,-3.069 -1.003,3.069 -1.038,0 0,-4.017 0.687,0 0,2.445 c 0,0.023 -0.004,0.055 -0.004,0.1 -0.003,0.046 -0.003,0.094 -0.006,0.153 0,0.054 -0.004,0.112 -0.006,0.177 -0.006,0.064 -0.006,0.122 -0.013,0.184 l 0.041,0 1.034,-3.059 0.557,0 1.085,3.059 0.035,0 c -0.005,-0.045 -0.007,-0.101 -0.01,-0.165 0,-0.064 -10e-4,-0.128 -0.005,-0.193 -0.002,-0.068 -0.003,-0.126 -0.004,-0.181 -0.002,-0.058 -0.005,-0.104 -0.005,-0.136 l 0,-2.384 0.708,0 0,4.017 -0.991,0 z m -6.377,-0.6 1.092,0 0,-3.417 0.707,0 0,3.417 1.11,0 0,0.6 -2.909,0 0,-0.6"
         style="fill:#005293;fill-opacity:1;fill-rule:nonzero;stroke:none"
         id="path26"
         inkscape:connector-curvature="0" /><path
         d="M 45.776,22.178 C 42.935,23.752 37.907,19.879 33.824,14.255 29.813,8.735 28.698,4.087 29.056,2.453 c 0.106,-0.66 0.406,-1.63 1.154,-2.038 0.673,-0.371 1.763,-0.524 3.105,-0.333 1.822,0.265 6.204,2.063 10.813,5.679 0,0 -1.482,1.933 -1.463,1.921 C 39.612,5.348 37.133,3.934 35.629,3.22 33.176,2.196 32.343,2.136 31.902,2.375 c -0.443,0.24 -0.605,1.088 -0.066,2.771 0.425,1.271 1.225,3.024 2.258,4.769 0,0.012 7.548,1.576 7.548,1.576 l 0.797,2.464 -6.724,-1.348 c 3.912,5.749 7.21,8.054 8.288,7.721 1.026,-0.371 0.415,-2.248 -0.08,-3.722 0,0 2.419,0.003 2.422,0 0.727,2.614 0.797,4.817 -0.569,5.572"
         style="fill:#002f5f;fill-opacity:1;fill-rule:nonzero;stroke:none"
         id="path30"
         inkscape:connector-curvature="0" /></g></g></svg>