<?xml version="1.0" encoding="UTF-8" standalone="no"?>
<!-- Created with Inkscape (http://www.inkscape.org/) -->

<svg
   xmlns:dc="http://purl.org/dc/elements/1.1/"
   xmlns:cc="http://creativecommons.org/ns#"
   xmlns:rdf="http://www.w3.org/1999/02/22-rdf-syntax-ns#"
   xmlns:svg="http://www.w3.org/2000/svg"
   xmlns="http://www.w3.org/2000/svg"
   xmlns:sodipodi="http://sodipodi.sourceforge.net/DTD/sodipodi-0.dtd"
   xmlns:inkscape="http://www.inkscape.org/namespaces/inkscape"
   id="svg2"
   version="1.1"
   inkscape:version="0.48.2 r9819"
   width="177.74998"
   height="48.720863"
   xml:space="preserve"
   sodipodi:docname="Logo.eps"><metadata
     id="metadata8"><rdf:RDF><cc:Work
         rdf:about=""><dc:format>image/svg+xml</dc:format><dc:type
           rdf:resource="http://purl.org/dc/dcmitype/StillImage" /><dc:title></dc:title></cc:Work></rdf:RDF></metadata><defs
     id="defs6"><clipPath
       clipPathUnits="userSpaceOnUse"
       id="clipPath16"><path
         d="m 0,24.474 89.28,0 0,-24.414 -89.28,0 0,24.414 z"
         id="path18"
         inkscape:connector-curvature="0" /></clipPath></defs><sodipodi:namedview
     pagecolor="#ffffff"
     bordercolor="#666666"
     borderopacity="1"
     objecttolerance="10"
     gridtolerance="10"
     guidetolerance="10"
     inkscape:pageopacity="0"
     inkscape:pageshadow="2"
     inkscape:window-width="1335"
     inkscape:window-height="890"
     id="namedview4"
     showgrid="false"
     inkscape:zoom="4.1653483"
     inkscape:cx="88.874993"
     inkscape:cy="-0.40757463"
     inkscape:window-x="16"
     inkscape:window-y="116"
     inkscape:window-maximized="0"
     inkscape:current-layer="g10"
     fit-margin-top="0"
     fit-margin-left="0"
     fit-margin-right="0"
     fit-margin-bottom="0" /><g
     id="g10"
     inkscape:groupmode="layer"
     inkscape:label="Logo"
     transform="matrix(1.25,0,0,-1.25,33.068126,39.656392)"><g
       id="g3782"
       transform="matrix(1.5925455,0,0,1.5925455,-26.454493,-7.2508432)"><path
         d="m 78.078995,10.304001 c -0.414,0.433 -0.931,0.818 -1.547,1.161 -0.617,0.341 -1.334,0.674 -2.153,0.998 -0.757,0.297 -1.393,0.578 -1.911,0.845 -0.516,0.264 -0.933,0.549 -1.248,0.849 -0.316,0.302 -0.539,0.641 -0.674,1.013 -0.136,0.375 -0.202,0.818 -0.202,1.331 0,0.863 0.301,1.55 0.902,2.059 0.604,0.507 1.455,0.762 2.553,0.762 0.791,0 1.559,-0.099 2.303,-0.292 0.742,-0.195 1.405,-0.419 1.989,-0.68 l 0.905,2.107 c -0.665,0.312 -1.426,0.573 -2.282,0.774 -0.854,0.204 -1.817,0.302 -2.889,0.302 -0.873,0 -1.672,-0.11 -2.394,-0.335 -0.727,-0.225 -1.35,-0.552 -1.872,-0.977 -0.522,-0.429 -0.926,-0.954 -1.213,-1.574 -0.289,-0.621 -0.433,-1.328 -0.433,-2.119 0,-0.759 0.092,-1.431 0.276,-2.027 0.184,-0.593 0.467,-1.124 0.852,-1.592 0.384,-0.467 0.866,-0.89 1.456,-1.261 0.591,-0.375 1.287,-0.716 2.086,-1.035 0.838,-0.332 1.531,-0.638 2.081,-0.923 0.548,-0.284 0.986,-0.575 1.315,-0.878 0.328,-0.303 0.556,-0.632 0.688,-0.992 0.131,-0.36 0.197,-0.784 0.197,-1.268 0,-1.011 -0.344,-1.784 -1.035,-2.323 -0.687,-0.54 -1.753,-0.81 -3.191,-0.81 -0.45,0 -0.906,0.033 -1.364,0.103 -0.459,0.065 -0.904,0.152 -1.337,0.261 -0.432,0.109 -0.842,0.23 -1.235,0.37 -0.392,0.142 -0.741,0.283 -1.045,0.426 l 0,-2.4 c 0.582,-0.31 1.313,-0.54 2.179,-0.696 0.868,-0.159 1.804,-0.238 2.802,-0.238 1.036,0 1.965,0.124 2.794,0.371 0.827,0.247 1.532,0.61 2.107,1.086 0.576,0.477 1.019,1.062 1.327,1.747 0.313,0.69 0.469,1.469 0.469,2.346 0,0.773 -0.108,1.445 -0.318,2.009 -0.213,0.567 -0.526,1.069 -0.938,1.5 m -67.656,0 c -0.415,0.433 -0.931,0.818 -1.549,1.161 -0.614,0.341 -1.332,0.674 -2.152,0.998 -0.755,0.297 -1.392,0.578 -1.909,0.845 -0.517,0.264 -0.936,0.549 -1.25,0.849 -0.315,0.302 -0.54,0.641 -0.674,1.013 -0.135,0.375 -0.202,0.818 -0.202,1.331 0,0.863 0.3,1.55 0.905,2.059 0.603,0.507 1.451,0.762 2.55,0.762 0.793,0 1.56,-0.099 2.302,-0.292 0.742,-0.195 1.406,-0.419 1.99,-0.68 l 0.906,2.107 c -0.665,0.312 -1.426,0.573 -2.282,0.774 -0.855,0.204 -1.817,0.302 -2.887,0.302 -0.875,0 -1.673,-0.11 -2.397,-0.335 -0.724,-0.225 -1.348,-0.552 -1.872,-0.977 -0.522,-0.429 -0.926,-0.954 -1.214,-1.574 -0.288,-0.621 -0.431,-1.328 -0.431,-2.119 0,-0.759 0.092,-1.431 0.277,-2.027 0.184,-0.593 0.465,-1.124 0.85,-1.592 0.383,-0.467 0.867,-0.89 1.459,-1.261 0.588,-0.375 1.283,-0.716 2.084,-1.035 0.838,-0.332 1.53,-0.638 2.08,-0.923 0.549,-0.284 0.987,-0.575 1.316,-0.878 0.328,-0.303 0.557,-0.632 0.687,-0.992 0.132,-0.36 0.197,-0.784 0.197,-1.268 0,-1.011 -0.344,-1.784 -1.034,-2.323 -0.688,-0.54 -1.752,-0.81 -3.192,-0.81 -0.45,0 -0.905,0.033 -1.364,0.103 -0.459,0.065 -0.903,0.152 -1.334,0.261 -0.433,0.109 -0.846,0.23 -1.237,0.37 -0.391,0.142 -0.742,0.283 -1.046,0.426 l 0,-2.4 c 0.585,-0.31 1.311,-0.54 2.181,-0.696 0.869,-0.159 1.801,-0.238 2.8,-0.238 1.035,0 1.966,0.124 2.796,0.371 0.827,0.247 1.53,0.61 2.105,1.086 0.575,0.477 1.019,1.062 1.329,1.747 0.311,0.69 0.467,1.469 0.467,2.346 0,0.773 -0.105,1.445 -0.318,2.009 -0.212,0.567 -0.525,1.069 -0.937,1.5 m 15.997,9.443 c -0.567,0.489 -1.288,0.864 -2.16,1.121 -0.874,0.255 -1.911,0.384 -3.118,0.384 l -4.887,0 0,-19.737 2.512,0 0,7.682 2.023,0 c 1.37,0 2.518,0.172 3.451,0.519 0.932,0.345 1.68,0.812 2.246,1.389 0.567,0.581 0.976,1.25 1.222,2.005 0.247,0.758 0.372,1.544 0.372,2.365 0,0.917 -0.135,1.736 -0.405,2.455 -0.27,0.72 -0.69,1.326 -1.256,1.817 m -1.241,-6.265 c -0.207,-0.507 -0.516,-0.923 -0.926,-1.242 -0.411,-0.321 -0.926,-0.551 -1.551,-0.695 -0.627,-0.144 -1.357,-0.215 -2.196,-0.215 l -1.739,0 0,7.776 2.158,0 c 1.565,0 2.719,-0.309 3.456,-0.927 0.738,-0.614 1.106,-1.562 1.106,-2.838 0,-0.732 -0.101,-1.349 -0.308,-1.859 m 28.51,3.72 c 0.553,0.684 1.223,1.208 2.005,1.571 0.783,0.365 1.656,0.549 2.618,0.549 0.847,0 1.603,-0.105 2.268,-0.313 0.666,-0.206 1.284,-0.452 1.851,-0.74 l 1.051,2.104 c -0.71,0.378 -1.505,0.669 -2.388,0.867 -0.882,0.198 -1.809,0.293 -2.782,0.293 -1.456,0 -2.749,-0.245 -3.872,-0.74 -1.125,-0.494 -2.068,-1.19 -2.83,-2.08 -0.758,-0.89 -1.337,-1.958 -1.727,-3.199 -0.393,-1.241 -0.588,-2.611 -0.588,-4.104 0,-1.523 0.171,-2.907 0.511,-4.157 0.343,-1.251 0.868,-2.323 1.575,-3.214 0.708,-0.89 1.601,-1.58 2.679,-2.066 1.081,-0.483 2.359,-0.728 3.835,-0.728 0.531,0 1.013,0.015 1.451,0.049 0.435,0.03 0.846,0.077 1.228,0.141 0.383,0.062 0.751,0.143 1.102,0.249 0.349,0.103 0.701,0.224 1.051,0.359 l 0,2.186 c -0.702,-0.207 -1.411,-0.391 -2.13,-0.546 -0.723,-0.159 -1.483,-0.237 -2.285,-0.237 -1.061,0 -1.987,0.173 -2.778,0.527 -0.794,0.351 -1.455,0.863 -1.985,1.539 -0.532,0.674 -0.93,1.504 -1.197,2.49 -0.263,0.987 -0.398,2.115 -0.398,3.382 0,1.231 0.15,2.338 0.453,3.321 0.303,0.98 0.727,1.814 1.282,2.497 m -7.913,4.976 c -2.841,1.574 -7.869,-2.299 -11.952,-7.923 -4.011,-5.52 -5.126,-10.168 -4.767,-11.802 0.105,-0.66 0.406,-1.629 1.153,-2.038 0.673,-0.371 1.764,-0.524 3.106,-0.333 1.822,0.265 6.203,2.063 10.813,5.679 0,0 -1.483,1.933 -1.464,1.921 -3.052,-2.334 -5.532,-3.748 -7.035,-4.462 -2.453,-1.024 -3.287,-1.084 -3.728,-0.845 -0.443,0.24 -0.605,1.088 -0.065,2.771 0.425,1.271 1.224,3.024 2.257,4.769 0,0.012 7.548,1.576 7.548,1.576 l 0.797,2.464 -6.724,-1.348 c 3.912,5.749 7.21,8.054 8.289,7.721 1.025,-0.371 0.414,-2.248 -0.08,-3.722 0,0 2.419,0.003 2.422,0 0.726,2.614 0.796,4.817 -0.57,5.572"
         style="fill:#8b8d8e;fill-opacity:1;fill-rule:nonzero;stroke:none"
         id="path22"
         inkscape:connector-curvature="0" /><path
         d="m 88.300003,24.473999 -1.062,-3.069 -1.003,3.069 -1.038,0 0,-4.017 0.687,0 0,2.445 c 0,0.023 -0.004,0.055 -0.004,0.1 -0.003,0.046 -0.003,0.094 -0.006,0.153 0,0.054 -0.004,0.112 -0.006,0.177 -0.006,0.064 -0.006,0.122 -0.013,0.184 l 0.041,0 1.034,-3.059 0.557,0 1.085,3.059 0.035,0 c -0.005,-0.045 -0.007,-0.101 -0.01,-0.165 0,-0.064 -0.001,-0.128 -0.005,-0.193 -0.002,-0.068 -0.003,-0.126 -0.004,-0.181 -0.002,-0.058 -0.005,-0.104 -0.005,-0.136 l 0,-2.384 0.708,0 0,4.017 -0.991,0 z m -6.377,-0.6 1.092,0 0,-3.417 0.707,0 0,3.417 1.11,0 0,0.6 -2.909,0 0,-0.6"
         style="fill:#8b8d8e;fill-opacity:1;fill-rule:nonzero;stroke:none"
         id="path26"
         inkscape:connector-curvature="0" /></g></g></svg>