<?xml version="1.0" encoding="UTF-8" standalone="no"?>
<!-- Created with Inkscape (http://www.inkscape.org/) -->

<svg
   xmlns:dc="http://purl.org/dc/elements/1.1/"
   xmlns:cc="http://creativecommons.org/ns#"
   xmlns:rdf="http://www.w3.org/1999/02/22-rdf-syntax-ns#"
   xmlns:svg="http://www.w3.org/2000/svg"
   xmlns="http://www.w3.org/2000/svg"
   xmlns:sodipodi="http://sodipodi.sourceforge.net/DTD/sodipodi-0.dtd"
   xmlns:inkscape="http://www.inkscape.org/namespaces/inkscape"
   width="88.785301"
   height="354.38232"
   id="svg7172"
   version="1.1"
   inkscape:version="0.48.2 r9819"
   sodipodi:docname="DSub25_Female.svg">
  <defs
     id="defs7174" />
  <sodipodi:namedview
     id="base"
     pagecolor="#ffffff"
     bordercolor="#666666"
     borderopacity="1.0"
     inkscape:pageopacity="0.0"
     inkscape:pageshadow="2"
     inkscape:zoom="1.4142135"
     inkscape:cx="302.2967"
     inkscape:cy="197.77689"
     inkscape:document-units="px"
     inkscape:current-layer="layer3"
     showgrid="false"
     fit-margin-top="2"
     fit-margin-left="2"
     fit-margin-bottom="2"
     fit-margin-right="2"
     inkscape:window-width="1119"
     inkscape:window-height="761"
     inkscape:window-x="404"
     inkscape:window-y="146"
     inkscape:window-maximized="0" />
  <metadata
     id="metadata7177">
    <rdf:RDF>
      <cc:Work
         rdf:about="">
        <dc:format>image/svg+xml</dc:format>
        <dc:type
           rdf:resource="http://purl.org/dc/dcmitype/StillImage" />
        <dc:title />
      </cc:Work>
    </rdf:RDF>
  </metadata>
  <g
     inkscape:groupmode="layer"
     id="layer3"
     inkscape:label="Layer"
     transform="translate(-282.19053,-213.95778)">
    <path
       id="path7232"
       style="fill:none;stroke:#000000;stroke-width:2.5;stroke-linecap:butt;stroke-linejoin:miter;stroke-miterlimit:4;stroke-opacity:1;stroke-dasharray:none"
       d="m 285.21161,256.53021 0.3125,270.53555 m 82.20005,8.52733 0,13.42386 c 0,0 -0.12627,2.52539 -1.13643,4.54569 -0.60819,1.21638 -2.0203,3.56617 -2.90418,4.70259 -0.88389,1.13642 -2.01421,2.6216 -4.36078,4.04062 -1.10427,0.66777 -2.91687,1.57387 -5.48821,2.11593 -1.83676,0.38721 -4.91552,0.79459 -7.95495,0.63134 -2.15827,-0.11593 -6.81853,-0.50507 -6.81853,-0.50507 l -26.51651,-4.67196 c 0,0 -3.25509,-0.47361 -5.68211,-1.13642 -1.86797,-0.51014 -3.15672,-1.01015 -6.06091,-2.65165 -1.73807,-0.98239 -4.41942,-2.90419 -5.3033,-4.04061 -0.88388,-1.13642 -2.67152,-2.26015 -4.92449,-5.80838 -0.72509,-1.14196 -1.51523,-2.39911 -2.90419,-4.92449 -1.28942,-2.3444 -1.8848,-3.8854 -2.02031,-5.81219 -0.12881,-1.83153 -0.12627,-4.92068 -0.12627,-4.92068 l 0,-3.54918 m 82.20284,-278.23453 0,286.83923 m -0.002,-286.82517 0,-15.53109 c 0,0 -0.12627,-2.52539 -1.13643,-4.54569 -0.60819,-1.21638 -2.0203,-3.56617 -2.90418,-4.70259 -0.88389,-1.13642 -2.01421,-2.6216 -4.36078,-4.04062 -1.10427,-0.66777 -2.91687,-1.57387 -5.48821,-2.11593 -1.83676,-0.38721 -4.91552,-0.79459 -7.95495,-0.63134 -2.15827,0.11593 -6.81853,0.50507 -6.81853,0.50507 l -26.51651,4.67196 c 0,0 -3.25509,0.47361 -5.68211,1.13642 -1.86797,0.51014 -3.15672,1.01015 -6.06091,2.65165 -1.73807,0.98239 -4.41942,2.90419 -5.3033,4.04061 -0.88388,1.13642 -2.67152,2.26015 -4.92449,5.80838 -0.72509,1.14196 -1.65344,2.37516 -2.99794,4.92449 -1.28942,2.4449 -1.28258,3.59888 -1.66139,5.12652 -0.46489,1.87476 -0.54233,4.22875 -0.54233,4.22875 0,0 -0.24463,2.35866 -0.15624,6.21907" />
    <path
       sodipodi:type="arc"
       style="fill:none;stroke:#000000;stroke-width:1;stroke-linecap:square;stroke-linejoin:round;stroke-miterlimit:4;stroke-opacity:1;stroke-dasharray:none;stroke-dashoffset:0"
       id="path7234"
       sodipodi:cx="277.75"
       sodipodi:cy="468.11218"
       sodipodi:rx="4.75"
       sodipodi:ry="4.75"
       d="m 279.64878,463.75821 c 2.40464,1.04866 3.50387,3.84812 2.4552,6.25276 -1.04867,2.40463 -3.84813,3.50386 -6.25276,2.45519 -2.40464,-1.04867 -3.50387,-3.84813 -2.4552,-6.25276 1.04755,-2.40206 3.84251,-3.50197 6.24615,-2.45807"
       sodipodi:start="5.1236265"
       sodipodi:end="11.405294"
       sodipodi:open="true"
       transform="matrix(0,1,-1,0,810.49989,162.41147)" />
    <path
       sodipodi:type="arc"
       style="fill:none;stroke:#000000;stroke-width:1;stroke-linecap:square;stroke-linejoin:round;stroke-miterlimit:4;stroke-opacity:1;stroke-dasharray:none;stroke-dashoffset:0"
       id="path7234-2"
       sodipodi:cx="277.75"
       sodipodi:cy="468.11218"
       sodipodi:rx="4.75"
       sodipodi:ry="4.75"
       d="m 279.64878,463.75821 c 2.40464,1.04866 3.50387,3.84812 2.4552,6.25276 -1.04867,2.40463 -3.84813,3.50386 -6.25276,2.45519 -2.40464,-1.04867 -3.50387,-3.84813 -2.4552,-6.25276 1.04755,-2.40206 3.84251,-3.50197 6.24615,-2.45807"
       sodipodi:start="5.1236265"
       sodipodi:end="11.405294"
       sodipodi:open="true"
       transform="matrix(0,1,-1,0,810.49989,186.871)" />
    <path
       sodipodi:type="arc"
       style="fill:none;stroke:#000000;stroke-width:1;stroke-linecap:square;stroke-linejoin:round;stroke-miterlimit:4;stroke-opacity:1;stroke-dasharray:none;stroke-dashoffset:0"
       id="path7234-9"
       sodipodi:cx="277.75"
       sodipodi:cy="468.11218"
       sodipodi:rx="4.75"
       sodipodi:ry="4.75"
       d="m 279.64878,463.75821 c 2.40464,1.04866 3.50387,3.84812 2.4552,6.25276 -1.04867,2.40463 -3.84813,3.50386 -6.25276,2.45519 -2.40464,-1.04867 -3.50387,-3.84813 -2.4552,-6.25276 1.04755,-2.40206 3.84251,-3.50197 6.24615,-2.45807"
       sodipodi:start="5.1236265"
       sodipodi:end="11.405294"
       sodipodi:open="true"
       transform="matrix(0,1,-1,0,810.49989,211.33054)" />
    <path
       sodipodi:type="arc"
       style="fill:none;stroke:#000000;stroke-width:1;stroke-linecap:square;stroke-linejoin:round;stroke-miterlimit:4;stroke-opacity:1;stroke-dasharray:none;stroke-dashoffset:0"
       id="path7234-6"
       sodipodi:cx="277.75"
       sodipodi:cy="468.11218"
       sodipodi:rx="4.75"
       sodipodi:ry="4.75"
       d="m 279.64878,463.75821 c 2.40464,1.04866 3.50387,3.84812 2.4552,6.25276 -1.04867,2.40463 -3.84813,3.50386 -6.25276,2.45519 -2.40464,-1.04867 -3.50387,-3.84813 -2.4552,-6.25276 1.04755,-2.40206 3.84251,-3.50197 6.24615,-2.45807"
       sodipodi:start="5.1236265"
       sodipodi:end="11.405294"
       sodipodi:open="true"
       transform="matrix(0,1,-1,0,810.49989,235.79007)" />
    <path
       sodipodi:type="arc"
       style="fill:none;stroke:#000000;stroke-width:1;stroke-linecap:square;stroke-linejoin:round;stroke-miterlimit:4;stroke-opacity:1;stroke-dasharray:none;stroke-dashoffset:0"
       id="path7234-4"
       sodipodi:cx="277.75"
       sodipodi:cy="468.11218"
       sodipodi:rx="4.75"
       sodipodi:ry="4.75"
       d="m 279.64878,463.75821 c 2.40464,1.04866 3.50387,3.84812 2.4552,6.25276 -1.04867,2.40463 -3.84813,3.50386 -6.25276,2.45519 -2.40464,-1.04867 -3.50387,-3.84813 -2.4552,-6.25276 1.04755,-2.40206 3.84251,-3.50197 6.24615,-2.45807"
       sodipodi:start="5.1236265"
       sodipodi:end="11.405294"
       sodipodi:open="true"
       transform="matrix(0,1,-1,0,810.49989,260.24961)" />
    <path
       sodipodi:type="arc"
       style="fill:none;stroke:#000000;stroke-width:1;stroke-linecap:square;stroke-linejoin:round;stroke-miterlimit:4;stroke-opacity:1;stroke-dasharray:none;stroke-dashoffset:0"
       id="path7234-44"
       sodipodi:cx="277.75"
       sodipodi:cy="468.11218"
       sodipodi:rx="4.75"
       sodipodi:ry="4.75"
       d="m 279.64878,463.75821 c 2.40464,1.04866 3.50387,3.84812 2.4552,6.25276 -1.04867,2.40463 -3.84813,3.50386 -6.25276,2.45519 -2.40464,-1.04867 -3.50387,-3.84813 -2.4552,-6.25276 1.04755,-2.40206 3.84251,-3.50197 6.24615,-2.45807"
       sodipodi:start="5.1236265"
       sodipodi:end="11.405294"
       sodipodi:open="true"
       transform="matrix(0,1,-1,0,772.13632,174.32556)" />
    <path
       sodipodi:type="arc"
       style="fill:none;stroke:#000000;stroke-width:1;stroke-linecap:square;stroke-linejoin:round;stroke-miterlimit:4;stroke-opacity:1;stroke-dasharray:none;stroke-dashoffset:0"
       id="path7234-3"
       sodipodi:cx="277.75"
       sodipodi:cy="468.11218"
       sodipodi:rx="4.75"
       sodipodi:ry="4.75"
       d="m 279.64878,463.75821 c 2.40464,1.04866 3.50387,3.84812 2.4552,6.25276 -1.04867,2.40463 -3.84813,3.50386 -6.25276,2.45519 -2.40464,-1.04867 -3.50387,-3.84813 -2.4552,-6.25276 1.04755,-2.40206 3.84251,-3.50197 6.24615,-2.45807"
       sodipodi:start="5.1236265"
       sodipodi:end="11.405294"
       sodipodi:open="true"
       transform="matrix(0,1,-1,0,772.13632,198.59497)" />
    <path
       sodipodi:type="arc"
       style="fill:none;stroke:#000000;stroke-width:1;stroke-linecap:square;stroke-linejoin:round;stroke-miterlimit:4;stroke-opacity:1;stroke-dasharray:none;stroke-dashoffset:0"
       id="path7234-99"
       sodipodi:cx="277.75"
       sodipodi:cy="468.11218"
       sodipodi:rx="4.75"
       sodipodi:ry="4.75"
       d="m 279.64878,463.75821 c 2.40464,1.04866 3.50387,3.84812 2.4552,6.25276 -1.04867,2.40463 -3.84813,3.50386 -6.25276,2.45519 -2.40464,-1.04867 -3.50387,-3.84813 -2.4552,-6.25276 1.04755,-2.40206 3.84251,-3.50197 6.24615,-2.45807"
       sodipodi:start="5.1236265"
       sodipodi:end="11.405294"
       sodipodi:open="true"
       transform="matrix(0,1,-1,0,772.13632,222.8644)" />
    <path
       sodipodi:type="arc"
       style="fill:none;stroke:#000000;stroke-width:1;stroke-linecap:square;stroke-linejoin:round;stroke-miterlimit:4;stroke-opacity:1;stroke-dasharray:none;stroke-dashoffset:0"
       id="path7234-40"
       sodipodi:cx="277.75"
       sodipodi:cy="468.11218"
       sodipodi:rx="4.75"
       sodipodi:ry="4.75"
       d="m 279.64878,463.75821 c 2.40464,1.04866 3.50387,3.84812 2.4552,6.25276 -1.04867,2.40463 -3.84813,3.50386 -6.25276,2.45519 -2.40464,-1.04867 -3.50387,-3.84813 -2.4552,-6.25276 1.04755,-2.40206 3.84251,-3.50197 6.24615,-2.45807"
       sodipodi:start="5.1236265"
       sodipodi:end="11.405294"
       sodipodi:open="true"
       transform="matrix(0,1,-1,0,772.13632,247.13381)" />
    <text
       xml:space="preserve"
       style="font-size:12px;font-style:normal;font-variant:normal;font-weight:normal;font-stretch:normal;text-align:center;line-height:125%;letter-spacing:0px;word-spacing:0px;writing-mode:lr-tb;text-anchor:middle;fill:#000000;fill-opacity:1;stroke:none;font-family:Droid Sans Pro;-inkscape-font-specification:Droid Sans Pro"
       x="353.91736"
       y="542.18762"
       id="text7826"
       sodipodi:linespacing="125%"><tspan
         sodipodi:role="line"
         id="tspan7828"
         x="353.91736"
         y="542.18762">1</tspan></text>
    <text
       xml:space="preserve"
       style="font-size:12px;font-style:normal;font-variant:normal;font-weight:normal;font-stretch:normal;text-align:center;line-height:125%;letter-spacing:0px;word-spacing:0px;writing-mode:lr-tb;text-anchor:middle;fill:#000000;fill-opacity:1;stroke:none;font-family:Droid Sans Pro;-inkscape-font-specification:Droid Sans Pro"
       x="354.27734"
       y="517.77002"
       id="text7830"
       sodipodi:linespacing="125%"><tspan
         sodipodi:role="line"
         id="tspan7832"
         x="354.27734"
         y="517.77002">2</tspan></text>
    <text
       xml:space="preserve"
       style="font-size:12px;font-style:normal;font-variant:normal;font-weight:normal;font-stretch:normal;text-align:center;line-height:125%;letter-spacing:0px;word-spacing:0px;writing-mode:lr-tb;text-anchor:middle;fill:#000000;fill-opacity:1;stroke:none;font-family:Droid Sans Pro;-inkscape-font-specification:Droid Sans Pro"
       x="354.27734"
       y="493.26855"
       id="text7834"
       sodipodi:linespacing="125%"><tspan
         sodipodi:role="line"
         id="tspan7836"
         x="354.27734"
         y="493.26855">3</tspan></text>
    <text
       xml:space="preserve"
       style="font-size:12px;font-style:normal;font-variant:normal;font-weight:normal;font-stretch:normal;text-align:center;line-height:125%;letter-spacing:0px;word-spacing:0px;writing-mode:lr-tb;text-anchor:middle;fill:#000000;fill-opacity:1;stroke:none;font-family:Droid Sans Pro;-inkscape-font-specification:Droid Sans Pro"
       x="354.44507"
       y="468.80902"
       id="text7838"
       sodipodi:linespacing="125%"><tspan
         sodipodi:role="line"
         id="tspan7840"
         x="354.44507"
         y="468.80902">4</tspan></text>
    <text
       xml:space="preserve"
       style="font-size:12px;font-style:normal;font-variant:normal;font-weight:normal;font-stretch:normal;text-align:center;line-height:125%;letter-spacing:0px;word-spacing:0px;writing-mode:lr-tb;text-anchor:middle;fill:#000000;fill-opacity:1;stroke:none;font-family:Droid Sans Pro;-inkscape-font-specification:Droid Sans Pro"
       x="353.98914"
       y="444.30756"
       id="text7842"
       sodipodi:linespacing="125%"><tspan
         sodipodi:role="line"
         id="tspan7844"
         x="353.98914"
         y="444.30756">5</tspan></text>
    <text
       xml:space="preserve"
       style="font-size:12px;font-style:normal;font-variant:normal;font-weight:normal;font-stretch:normal;text-align:center;line-height:125%;letter-spacing:0px;word-spacing:0px;writing-mode:lr-tb;text-anchor:middle;fill:#000000;fill-opacity:1;stroke:none;font-family:Droid Sans Pro;-inkscape-font-specification:Droid Sans Pro"
       x="354.27734"
       y="419.88995"
       id="text7846"
       sodipodi:linespacing="125%"><tspan
         sodipodi:role="line"
         id="tspan7848"
         x="354.27734"
         y="419.88995">6</tspan></text>
    <text
       xml:space="preserve"
       style="font-size:12px;font-style:normal;font-variant:normal;font-weight:normal;font-stretch:normal;text-align:center;line-height:125%;letter-spacing:0px;word-spacing:0px;writing-mode:lr-tb;text-anchor:middle;fill:#000000;fill-opacity:1;stroke:none;font-family:Droid Sans Pro;-inkscape-font-specification:Droid Sans Pro"
       x="354.04919"
       y="395.43042"
       id="text7850"
       sodipodi:linespacing="125%"><tspan
         sodipodi:role="line"
         id="tspan7852"
         x="354.04919"
         y="395.43042">7</tspan></text>
    <text
       xml:space="preserve"
       style="font-size:12px;font-style:normal;font-variant:normal;font-weight:normal;font-stretch:normal;text-align:center;line-height:125%;letter-spacing:0px;word-spacing:0px;writing-mode:lr-tb;text-anchor:middle;fill:#000000;fill-opacity:1;stroke:none;font-family:Droid Sans Pro;-inkscape-font-specification:Droid Sans Pro"
       x="354.27734"
       y="370.97089"
       id="text7854"
       sodipodi:linespacing="125%"><tspan
         sodipodi:role="line"
         id="tspan7856"
         x="354.27734"
         y="370.97089">8</tspan></text>
    <text
       xml:space="preserve"
       style="font-size:12px;font-style:normal;font-variant:normal;font-weight:normal;font-stretch:normal;text-align:center;line-height:125%;letter-spacing:0px;word-spacing:0px;writing-mode:lr-tb;text-anchor:middle;fill:#000000;fill-opacity:1;stroke:none;font-family:Droid Sans Pro;-inkscape-font-specification:Droid Sans Pro"
       x="354.27734"
       y="346.51132"
       id="text7858"
       sodipodi:linespacing="125%"><tspan
         sodipodi:role="line"
         id="tspan7860"
         x="354.27734"
         y="346.51132">9</tspan></text>
    <path
       sodipodi:type="arc"
       style="fill:none;stroke:#000000;stroke-width:1;stroke-linecap:square;stroke-linejoin:round;stroke-miterlimit:4;stroke-opacity:1;stroke-dasharray:none;stroke-dashoffset:0"
       id="path7234-1"
       sodipodi:cx="277.75"
       sodipodi:cy="468.11218"
       sodipodi:rx="4.75"
       sodipodi:ry="4.75"
       d="m 279.64878,463.75821 c 2.40464,1.04866 3.50387,3.84812 2.4552,6.25276 -1.04867,2.40463 -3.84813,3.50386 -6.25276,2.45519 -2.40464,-1.04867 -3.50387,-3.84813 -2.4552,-6.25276 1.04755,-2.40206 3.84251,-3.50197 6.24615,-2.45807"
       sodipodi:start="5.1236265"
       sodipodi:end="11.405294"
       sodipodi:open="true"
       transform="matrix(0,1,-1,0,810.49989,137.95194)" />
    <path
       sodipodi:type="arc"
       style="fill:none;stroke:#000000;stroke-width:1;stroke-linecap:square;stroke-linejoin:round;stroke-miterlimit:4;stroke-opacity:1;stroke-dasharray:none;stroke-dashoffset:0"
       id="path7234-7"
       sodipodi:cx="277.75"
       sodipodi:cy="468.11218"
       sodipodi:rx="4.75"
       sodipodi:ry="4.75"
       d="m 279.64878,463.75821 c 2.40464,1.04866 3.50387,3.84812 2.4552,6.25276 -1.04867,2.40463 -3.84813,3.50386 -6.25276,2.45519 -2.40464,-1.04867 -3.50387,-3.84813 -2.4552,-6.25276 1.04755,-2.40206 3.84251,-3.50197 6.24615,-2.45807"
       sodipodi:start="5.1236265"
       sodipodi:end="11.405294"
       sodipodi:open="true"
       transform="matrix(0,1,-1,0,810.49989,113.49239)" />
    <path
       sodipodi:type="arc"
       style="fill:none;stroke:#000000;stroke-width:1;stroke-linecap:square;stroke-linejoin:round;stroke-miterlimit:4;stroke-opacity:1;stroke-dasharray:none;stroke-dashoffset:0"
       id="path7234-409"
       sodipodi:cx="277.75"
       sodipodi:cy="468.11218"
       sodipodi:rx="4.75"
       sodipodi:ry="4.75"
       d="m 279.64878,463.75821 c 2.40464,1.04866 3.50387,3.84812 2.4552,6.25276 -1.04867,2.40463 -3.84813,3.50386 -6.25276,2.45519 -2.40464,-1.04867 -3.50387,-3.84813 -2.4552,-6.25276 1.04755,-2.40206 3.84251,-3.50197 6.24615,-2.45807"
       sodipodi:start="5.1236265"
       sodipodi:end="11.405294"
       sodipodi:open="true"
       transform="matrix(0,1,-1,0,810.49989,89.032854)" />
    <path
       sodipodi:type="arc"
       style="fill:none;stroke:#000000;stroke-width:1;stroke-linecap:square;stroke-linejoin:round;stroke-miterlimit:4;stroke-opacity:1;stroke-dasharray:none;stroke-dashoffset:0"
       id="path7234-48"
       sodipodi:cx="277.75"
       sodipodi:cy="468.11218"
       sodipodi:rx="4.75"
       sodipodi:ry="4.75"
       d="m 279.64878,463.75821 c 2.40464,1.04866 3.50387,3.84812 2.4552,6.25276 -1.04867,2.40463 -3.84813,3.50386 -6.25276,2.45519 -2.40464,-1.04867 -3.50387,-3.84813 -2.4552,-6.25276 1.04755,-2.40206 3.84251,-3.50197 6.24615,-2.45807"
       sodipodi:start="5.1236265"
       sodipodi:end="11.405294"
       sodipodi:open="true"
       transform="matrix(0,1,-1,0,772.13632,150.05614)" />
    <path
       sodipodi:type="arc"
       style="fill:none;stroke:#000000;stroke-width:1;stroke-linecap:square;stroke-linejoin:round;stroke-miterlimit:4;stroke-opacity:1;stroke-dasharray:none;stroke-dashoffset:0"
       id="path7234-8"
       sodipodi:cx="277.75"
       sodipodi:cy="468.11218"
       sodipodi:rx="4.75"
       sodipodi:ry="4.75"
       d="m 279.64878,463.75821 c 2.40464,1.04866 3.50387,3.84812 2.4552,6.25276 -1.04867,2.40463 -3.84813,3.50386 -6.25276,2.45519 -2.40464,-1.04867 -3.50387,-3.84813 -2.4552,-6.25276 1.04755,-2.40206 3.84251,-3.50197 6.24615,-2.45807"
       sodipodi:start="5.1236265"
       sodipodi:end="11.405294"
       sodipodi:open="true"
       transform="matrix(0,1,-1,0,772.13632,125.78672)" />
    <path
       sodipodi:type="arc"
       style="fill:none;stroke:#000000;stroke-width:1;stroke-linecap:square;stroke-linejoin:round;stroke-miterlimit:4;stroke-opacity:1;stroke-dasharray:none;stroke-dashoffset:0"
       id="path7234-24"
       sodipodi:cx="277.75"
       sodipodi:cy="468.11218"
       sodipodi:rx="4.75"
       sodipodi:ry="4.75"
       d="m 279.64878,463.75821 c 2.40464,1.04866 3.50387,3.84812 2.4552,6.25276 -1.04867,2.40463 -3.84813,3.50386 -6.25276,2.45519 -2.40464,-1.04867 -3.50387,-3.84813 -2.4552,-6.25276 1.04755,-2.40206 3.84251,-3.50197 6.24615,-2.45807"
       sodipodi:start="5.1236265"
       sodipodi:end="11.405294"
       sodipodi:open="true"
       transform="matrix(0,1,-1,0,772.13632,101.51731)" />
    <text
       xml:space="preserve"
       style="font-size:12px;font-style:normal;font-variant:normal;font-weight:normal;font-stretch:normal;text-align:center;line-height:125%;letter-spacing:0px;word-spacing:0px;writing-mode:lr-tb;text-anchor:middle;fill:#000000;fill-opacity:1;stroke:none;font-family:Droid Sans Pro;-inkscape-font-specification:Droid Sans Pro"
       x="356.80017"
       y="322.05179"
       id="text3834"
       sodipodi:linespacing="125%"><tspan
         sodipodi:role="line"
         id="tspan3836"
         x="356.80017"
         y="322.05179">10</tspan></text>
    <text
       xml:space="preserve"
       style="font-size:12px;font-style:normal;font-variant:normal;font-weight:normal;font-stretch:normal;text-align:center;line-height:125%;letter-spacing:0px;word-spacing:0px;writing-mode:lr-tb;text-anchor:middle;fill:#000000;fill-opacity:1;stroke:none;font-family:Droid Sans Pro;-inkscape-font-specification:Droid Sans Pro"
       x="356.80017"
       y="297.59229"
       id="text3838"
       sodipodi:linespacing="125%"><tspan
         sodipodi:role="line"
         id="tspan3840"
         x="356.80017"
         y="297.59229">11</tspan></text>
    <text
       xml:space="preserve"
       style="font-size:12px;font-style:normal;font-variant:normal;font-weight:normal;font-stretch:normal;text-align:center;line-height:125%;letter-spacing:0px;word-spacing:0px;writing-mode:lr-tb;text-anchor:middle;fill:#000000;fill-opacity:1;stroke:none;font-family:Droid Sans Pro;-inkscape-font-specification:Droid Sans Pro"
       x="356.80017"
       y="273.17468"
       id="text3842"
       sodipodi:linespacing="125%"><tspan
         sodipodi:role="line"
         id="tspan3844"
         x="356.80017"
         y="273.17468">12</tspan></text>
    <text
       xml:space="preserve"
       style="font-size:12px;font-style:normal;font-variant:normal;font-weight:normal;font-stretch:normal;text-align:center;line-height:125%;letter-spacing:0px;word-spacing:0px;writing-mode:lr-tb;text-anchor:middle;fill:#000000;fill-opacity:1;stroke:none;font-family:Droid Sans Pro;-inkscape-font-specification:Droid Sans Pro"
       x="356.80017"
       y="248.6732"
       id="text3846"
       sodipodi:linespacing="125%"><tspan
         sodipodi:role="line"
         id="tspan3848"
         x="356.80017"
         y="248.6732">13</tspan></text>
    <text
       xml:space="preserve"
       style="font-size:12px;font-style:normal;font-variant:normal;font-weight:normal;font-stretch:normal;text-align:center;line-height:125%;letter-spacing:0px;word-spacing:0px;writing-mode:lr-tb;text-anchor:middle;fill:#000000;fill-opacity:1;stroke:none;font-family:Droid Sans Pro;-inkscape-font-specification:Droid Sans Pro"
       x="318.1351"
       y="529.8183"
       id="text3850"
       sodipodi:linespacing="125%"><tspan
         sodipodi:role="line"
         id="tspan3852"
         x="318.1351"
         y="529.8183">14</tspan></text>
    <text
       xml:space="preserve"
       style="font-size:12px;font-style:normal;font-variant:normal;font-weight:normal;font-stretch:normal;text-align:center;line-height:125%;letter-spacing:0px;word-spacing:0px;writing-mode:lr-tb;text-anchor:middle;fill:#000000;fill-opacity:1;stroke:none;font-family:Droid Sans Pro;-inkscape-font-specification:Droid Sans Pro"
       x="318.1351"
       y="505.43909"
       id="text3854"
       sodipodi:linespacing="125%"><tspan
         sodipodi:role="line"
         id="tspan3856"
         x="318.1351"
         y="505.43909">15</tspan></text>
    <path
       sodipodi:type="arc"
       style="fill:none;stroke:#000000;stroke-width:1;stroke-linecap:square;stroke-linejoin:round;stroke-miterlimit:4;stroke-opacity:1;stroke-dasharray:none;stroke-dashoffset:0"
       id="path7234-409-5"
       sodipodi:cx="277.75"
       sodipodi:cy="468.11218"
       sodipodi:rx="4.75"
       sodipodi:ry="4.75"
       d="m 279.64878,463.75821 c 2.40464,1.04866 3.50387,3.84812 2.4552,6.25276 -1.04867,2.40463 -3.84813,3.50386 -6.25276,2.45519 -2.40464,-1.04867 -3.50387,-3.84813 -2.4552,-6.25276 1.04755,-2.40206 3.84251,-3.50197 6.24615,-2.45807"
       sodipodi:start="5.1236265"
       sodipodi:end="11.405294"
       sodipodi:open="true"
       transform="matrix(0,1,-1,0,810.49989,64.573326)" />
    <path
       sodipodi:type="arc"
       style="fill:none;stroke:#000000;stroke-width:1;stroke-linecap:square;stroke-linejoin:round;stroke-miterlimit:4;stroke-opacity:1;stroke-dasharray:none;stroke-dashoffset:0"
       id="path7234-409-51"
       sodipodi:cx="277.75"
       sodipodi:cy="468.11218"
       sodipodi:rx="4.75"
       sodipodi:ry="4.75"
       d="m 279.64878,463.75821 c 2.40464,1.04866 3.50387,3.84812 2.4552,6.25276 -1.04867,2.40463 -3.84813,3.50386 -6.25276,2.45519 -2.40464,-1.04867 -3.50387,-3.84813 -2.4552,-6.25276 1.04755,-2.40206 3.84251,-3.50197 6.24615,-2.45807"
       sodipodi:start="5.1236265"
       sodipodi:end="11.405294"
       sodipodi:open="true"
       transform="matrix(0,1,-1,0,810.49989,40.113784)" />
    <path
       sodipodi:type="arc"
       style="fill:none;stroke:#000000;stroke-width:1;stroke-linecap:square;stroke-linejoin:round;stroke-miterlimit:4;stroke-opacity:1;stroke-dasharray:none;stroke-dashoffset:0"
       id="path7234-409-7"
       sodipodi:cx="277.75"
       sodipodi:cy="468.11218"
       sodipodi:rx="4.75"
       sodipodi:ry="4.75"
       d="m 279.64878,463.75821 c 2.40464,1.04866 3.50387,3.84812 2.4552,6.25276 -1.04867,2.40463 -3.84813,3.50386 -6.25276,2.45519 -2.40464,-1.04867 -3.50387,-3.84813 -2.4552,-6.25276 1.04755,-2.40206 3.84251,-3.50197 6.24615,-2.45807"
       sodipodi:start="5.1236265"
       sodipodi:end="11.405294"
       sodipodi:open="true"
       transform="matrix(0,1,-1,0,810.49989,15.654257)" />
    <path
       sodipodi:type="arc"
       style="fill:none;stroke:#000000;stroke-width:1;stroke-linecap:square;stroke-linejoin:round;stroke-miterlimit:4;stroke-opacity:1;stroke-dasharray:none;stroke-dashoffset:0"
       id="path7234-409-1"
       sodipodi:cx="277.75"
       sodipodi:cy="468.11218"
       sodipodi:rx="4.75"
       sodipodi:ry="4.75"
       d="m 279.64878,463.75821 c 2.40464,1.04866 3.50387,3.84812 2.4552,6.25276 -1.04867,2.40463 -3.84813,3.50386 -6.25276,2.45519 -2.40464,-1.04867 -3.50387,-3.84813 -2.4552,-6.25276 1.04755,-2.40206 3.84251,-3.50197 6.24615,-2.45807"
       sodipodi:start="5.1236265"
       sodipodi:end="11.405294"
       sodipodi:open="true"
       transform="matrix(0,1,-1,0,810.49989,-8.8052833)" />
    <path
       sodipodi:type="arc"
       style="fill:none;stroke:#000000;stroke-width:1;stroke-linecap:square;stroke-linejoin:round;stroke-miterlimit:4;stroke-opacity:1;stroke-dasharray:none;stroke-dashoffset:0"
       id="path7234-409-15"
       sodipodi:cx="277.75"
       sodipodi:cy="468.11218"
       sodipodi:rx="4.75"
       sodipodi:ry="4.75"
       d="m 279.64878,463.75821 c 2.40464,1.04866 3.50387,3.84812 2.4552,6.25276 -1.04867,2.40463 -3.84813,3.50386 -6.25276,2.45519 -2.40464,-1.04867 -3.50387,-3.84813 -2.4552,-6.25276 1.04755,-2.40206 3.84251,-3.50197 6.24615,-2.45807"
       sodipodi:start="5.1236265"
       sodipodi:end="11.405294"
       sodipodi:open="true"
       transform="matrix(0,1,-1,0,810.49989,-33.264806)" />
    <path
       sodipodi:type="arc"
       style="fill:none;stroke:#000000;stroke-width:1;stroke-linecap:square;stroke-linejoin:round;stroke-miterlimit:4;stroke-opacity:1;stroke-dasharray:none;stroke-dashoffset:0"
       id="path7234-409-2"
       sodipodi:cx="277.75"
       sodipodi:cy="468.11218"
       sodipodi:rx="4.75"
       sodipodi:ry="4.75"
       d="m 279.64878,463.75821 c 2.40464,1.04866 3.50387,3.84812 2.4552,6.25276 -1.04867,2.40463 -3.84813,3.50386 -6.25276,2.45519 -2.40464,-1.04867 -3.50387,-3.84813 -2.4552,-6.25276 1.04755,-2.40206 3.84251,-3.50197 6.24615,-2.45807"
       sodipodi:start="5.1236265"
       sodipodi:end="11.405294"
       sodipodi:open="true"
       transform="matrix(0,1,-1,0,772.13632,77.247894)" />
    <path
       sodipodi:type="arc"
       style="fill:none;stroke:#000000;stroke-width:1;stroke-linecap:square;stroke-linejoin:round;stroke-miterlimit:4;stroke-opacity:1;stroke-dasharray:none;stroke-dashoffset:0"
       id="path7234-409-76"
       sodipodi:cx="277.75"
       sodipodi:cy="468.11218"
       sodipodi:rx="4.75"
       sodipodi:ry="4.75"
       d="m 279.64878,463.75821 c 2.40464,1.04866 3.50387,3.84812 2.4552,6.25276 -1.04867,2.40463 -3.84813,3.50386 -6.25276,2.45519 -2.40464,-1.04867 -3.50387,-3.84813 -2.4552,-6.25276 1.04755,-2.40206 3.84251,-3.50197 6.24615,-2.45807"
       sodipodi:start="5.1236265"
       sodipodi:end="11.405294"
       sodipodi:open="true"
       transform="matrix(0,1,-1,0,772.13632,52.978472)" />
    <path
       sodipodi:type="arc"
       style="fill:none;stroke:#000000;stroke-width:1;stroke-linecap:square;stroke-linejoin:round;stroke-miterlimit:4;stroke-opacity:1;stroke-dasharray:none;stroke-dashoffset:0"
       id="path7234-409-14"
       sodipodi:cx="277.75"
       sodipodi:cy="468.11218"
       sodipodi:rx="4.75"
       sodipodi:ry="4.75"
       d="m 279.64878,463.75821 c 2.40464,1.04866 3.50387,3.84812 2.4552,6.25276 -1.04867,2.40463 -3.84813,3.50386 -6.25276,2.45519 -2.40464,-1.04867 -3.50387,-3.84813 -2.4552,-6.25276 1.04755,-2.40206 3.84251,-3.50197 6.24615,-2.45807"
       sodipodi:start="5.1236265"
       sodipodi:end="11.405294"
       sodipodi:open="true"
       transform="matrix(0,1,-1,0,772.13632,28.709052)" />
    <path
       sodipodi:type="arc"
       style="fill:none;stroke:#000000;stroke-width:1;stroke-linecap:square;stroke-linejoin:round;stroke-miterlimit:4;stroke-opacity:1;stroke-dasharray:none;stroke-dashoffset:0"
       id="path7234-409-23"
       sodipodi:cx="277.75"
       sodipodi:cy="468.11218"
       sodipodi:rx="4.75"
       sodipodi:ry="4.75"
       d="m 279.64878,463.75821 c 2.40464,1.04866 3.50387,3.84812 2.4552,6.25276 -1.04867,2.40463 -3.84813,3.50386 -6.25276,2.45519 -2.40464,-1.04867 -3.50387,-3.84813 -2.4552,-6.25276 1.04755,-2.40206 3.84251,-3.50197 6.24615,-2.45807"
       sodipodi:start="5.1236265"
       sodipodi:end="11.405294"
       sodipodi:open="true"
       transform="matrix(0,1,-1,0,772.13632,4.4396318)" />
    <path
       sodipodi:type="arc"
       style="fill:none;stroke:#000000;stroke-width:1;stroke-linecap:square;stroke-linejoin:round;stroke-miterlimit:4;stroke-opacity:1;stroke-dasharray:none;stroke-dashoffset:0"
       id="path7234-409-22"
       sodipodi:cx="277.75"
       sodipodi:cy="468.11218"
       sodipodi:rx="4.75"
       sodipodi:ry="4.75"
       d="m 279.64878,463.75821 c 2.40464,1.04866 3.50387,3.84812 2.4552,6.25276 -1.04867,2.40463 -3.84813,3.50386 -6.25276,2.45519 -2.40464,-1.04867 -3.50387,-3.84813 -2.4552,-6.25276 1.04755,-2.40206 3.84251,-3.50197 6.24615,-2.45807"
       sodipodi:start="5.1236265"
       sodipodi:end="11.405294"
       sodipodi:open="true"
       transform="matrix(0,1,-1,0,772.13632,-19.829765)" />
    <text
       xml:space="preserve"
       style="font-size:12px;font-style:normal;font-variant:normal;font-weight:normal;font-stretch:normal;text-align:center;line-height:125%;letter-spacing:0px;word-spacing:0px;writing-mode:lr-tb;text-anchor:middle;fill:#000000;fill-opacity:1;stroke:none;font-family:Droid Sans Pro;-inkscape-font-specification:Droid Sans Pro"
       x="318.1351"
       y="481.14374"
       id="text3939"
       sodipodi:linespacing="125%"><tspan
         sodipodi:role="line"
         id="tspan3941"
         x="318.1351"
         y="481.14374">16</tspan></text>
    <text
       xml:space="preserve"
       style="font-size:12px;font-style:normal;font-variant:normal;font-weight:normal;font-stretch:normal;text-align:center;line-height:125%;letter-spacing:0px;word-spacing:0px;writing-mode:lr-tb;text-anchor:middle;fill:#000000;fill-opacity:1;stroke:none;font-family:Droid Sans Pro;-inkscape-font-specification:Droid Sans Pro"
       x="318.1351"
       y="456.80646"
       id="text3943"
       sodipodi:linespacing="125%"><tspan
         sodipodi:role="line"
         id="tspan3945"
         x="318.1351"
         y="456.80646">17</tspan></text>
    <text
       xml:space="preserve"
       style="font-size:12px;font-style:normal;font-variant:normal;font-weight:normal;font-stretch:normal;text-align:center;line-height:125%;letter-spacing:0px;word-spacing:0px;writing-mode:lr-tb;text-anchor:middle;fill:#000000;fill-opacity:1;stroke:none;font-family:Droid Sans Pro;-inkscape-font-specification:Droid Sans Pro"
       x="318.1351"
       y="432.46918"
       id="text3947"
       sodipodi:linespacing="125%"><tspan
         sodipodi:role="line"
         id="tspan3949"
         x="318.1351"
         y="432.46918">18</tspan></text>
    <text
       xml:space="preserve"
       style="font-size:12px;font-style:normal;font-variant:normal;font-weight:normal;font-stretch:normal;text-align:center;line-height:125%;letter-spacing:0px;word-spacing:0px;writing-mode:lr-tb;text-anchor:middle;fill:#000000;fill-opacity:1;stroke:none;font-family:Droid Sans Pro;-inkscape-font-specification:Droid Sans Pro"
       x="318.1351"
       y="408.1319"
       id="text3951"
       sodipodi:linespacing="125%"><tspan
         sodipodi:role="line"
         id="tspan3953"
         x="318.1351"
         y="408.1319">19</tspan></text>
    <text
       xml:space="preserve"
       style="font-size:12px;font-style:normal;font-variant:normal;font-weight:normal;font-stretch:normal;text-align:center;line-height:125%;letter-spacing:0px;word-spacing:0px;writing-mode:lr-tb;text-anchor:middle;fill:#000000;fill-opacity:1;stroke:none;font-family:Droid Sans Pro;-inkscape-font-specification:Droid Sans Pro"
       x="318.49509"
       y="383.79462"
       id="text3955"
       sodipodi:linespacing="125%"><tspan
         sodipodi:role="line"
         id="tspan3957"
         x="318.49509"
         y="383.79462">20</tspan></text>
    <text
       xml:space="preserve"
       style="font-size:12px;font-style:normal;font-variant:normal;font-weight:normal;font-stretch:normal;text-align:center;line-height:125%;letter-spacing:0px;word-spacing:0px;writing-mode:lr-tb;text-anchor:middle;fill:#000000;fill-opacity:1;stroke:none;font-family:Droid Sans Pro;-inkscape-font-specification:Droid Sans Pro"
       x="318.49509"
       y="359.49927"
       id="text3959"
       sodipodi:linespacing="125%"><tspan
         sodipodi:role="line"
         id="tspan3961"
         x="318.49509"
         y="359.49927">21</tspan></text>
    <text
       xml:space="preserve"
       style="font-size:12px;font-style:normal;font-variant:normal;font-weight:normal;font-stretch:normal;text-align:center;line-height:125%;letter-spacing:0px;word-spacing:0px;writing-mode:lr-tb;text-anchor:middle;fill:#000000;fill-opacity:1;stroke:none;font-family:Droid Sans Pro;-inkscape-font-specification:Droid Sans Pro"
       x="318.49509"
       y="335.16199"
       id="text3963"
       sodipodi:linespacing="125%"><tspan
         sodipodi:role="line"
         id="tspan3965"
         x="318.49509"
         y="335.16199">22</tspan></text>
    <text
       xml:space="preserve"
       style="font-size:12px;font-style:normal;font-variant:normal;font-weight:normal;font-stretch:normal;text-align:center;line-height:125%;letter-spacing:0px;word-spacing:0px;writing-mode:lr-tb;text-anchor:middle;fill:#000000;fill-opacity:1;stroke:none;font-family:Droid Sans Pro;-inkscape-font-specification:Droid Sans Pro"
       x="318.49509"
       y="310.78278"
       id="text3967"
       sodipodi:linespacing="125%"><tspan
         sodipodi:role="line"
         id="tspan3969"
         x="318.49509"
         y="310.78278">23</tspan></text>
    <text
       xml:space="preserve"
       style="font-size:12px;font-style:normal;font-variant:normal;font-weight:normal;font-stretch:normal;text-align:center;line-height:125%;letter-spacing:0px;word-spacing:0px;writing-mode:lr-tb;text-anchor:middle;fill:#000000;fill-opacity:1;stroke:none;font-family:Droid Sans Pro;-inkscape-font-specification:Droid Sans Pro"
       x="318.49509"
       y="286.48743"
       id="text3971"
       sodipodi:linespacing="125%"><tspan
         sodipodi:role="line"
         id="tspan3973"
         x="318.49509"
         y="286.48743">24</tspan></text>
    <text
       xml:space="preserve"
       style="font-size:12px;font-style:normal;font-variant:normal;font-weight:normal;font-stretch:normal;text-align:center;line-height:125%;letter-spacing:0px;word-spacing:0px;writing-mode:lr-tb;text-anchor:middle;fill:#000000;fill-opacity:1;stroke:none;font-family:Droid Sans Pro;-inkscape-font-specification:Droid Sans Pro"
       x="318.49509"
       y="262.10822"
       id="text3975"
       sodipodi:linespacing="125%"><tspan
         sodipodi:role="line"
         id="tspan3977"
         x="318.49509"
         y="262.10822">25</tspan></text>
  </g>
</svg>
