<?xml version="1.0" encoding="UTF-8" standalone="no"?>
<!-- Created with Inkscape (http://www.inkscape.org/) -->

<svg
   xmlns:dc="http://purl.org/dc/elements/1.1/"
   xmlns:cc="http://creativecommons.org/ns#"
   xmlns:rdf="http://www.w3.org/1999/02/22-rdf-syntax-ns#"
   xmlns:svg="http://www.w3.org/2000/svg"
   xmlns="http://www.w3.org/2000/svg"
   xmlns:sodipodi="http://sodipodi.sourceforge.net/DTD/sodipodi-0.dtd"
   xmlns:inkscape="http://www.inkscape.org/namespaces/inkscape"
   width="87.285301"
   height="162.88232"
   id="svg7172"
   version="1.1"
   inkscape:version="0.48.2 r9819"
   sodipodi:docname="DSub9_Female.svg">
  <defs
     id="defs7174" />
  <sodipodi:namedview
     id="base"
     pagecolor="#ffffff"
     bordercolor="#666666"
     borderopacity="1.0"
     inkscape:pageopacity="0.0"
     inkscape:pageshadow="2"
     inkscape:zoom="2"
     inkscape:cx="61.266454"
     inkscape:cy="109.39962"
     inkscape:document-units="px"
     inkscape:current-layer="layer3"
     showgrid="false"
     fit-margin-top="2"
     fit-margin-left="2"
     fit-margin-bottom="2"
     fit-margin-right="2"
     inkscape:window-width="1119"
     inkscape:window-height="761"
     inkscape:window-x="334"
     inkscape:window-y="153"
     inkscape:window-maximized="0"
     inkscape:snap-global="true" />
  <metadata
     id="metadata7177">
    <rdf:RDF>
      <cc:Work
         rdf:about="">
        <dc:format>image/svg+xml</dc:format>
        <dc:type
           rdf:resource="http://purl.org/dc/dcmitype/StillImage" />
        <dc:title />
      </cc:Work>
    </rdf:RDF>
  </metadata>
  <g
     inkscape:groupmode="layer"
     id="layer3"
     inkscape:label="Layer"
     transform="translate(-282.94053,-404.70778)">
    <path
       id="path7232"
       style="fill:none;stroke:#000000;stroke-width:2;stroke-linecap:butt;stroke-linejoin:miter;stroke-miterlimit:4;stroke-opacity:1;stroke-dasharray:none"
       d="m 285.47992,442.87202 0.0884,84.23793 m 82.15586,4.60814 0,17.29886 c 0,0 -0.12627,2.52539 -1.13643,4.54569 -0.60819,1.21638 -2.0203,3.56617 -2.90418,4.70259 -0.88389,1.13642 -2.01421,2.6216 -4.36078,4.04062 -1.10427,0.66777 -2.91687,1.57387 -5.48821,2.11593 -1.83676,0.38721 -4.91552,0.79459 -7.95495,0.63134 -2.15827,-0.11593 -6.81853,-0.50507 -6.81853,-0.50507 l -26.51651,-4.67196 c 0,0 -3.25509,-0.47361 -5.68211,-1.13642 -1.86797,-0.51014 -3.15672,-1.01015 -6.06091,-2.65165 -1.73807,-0.98239 -4.41942,-2.90419 -5.3033,-4.04061 -0.88388,-1.13642 -2.67152,-2.26015 -4.92449,-5.80838 -0.72509,-1.14196 -1.44894,-2.75266 -2.8379,-5.27804 -1.28942,-2.3444 -1.6415,-4.29315 -2.02031,-6.18719 -0.37881,-1.89403 -0.18877,-4.67068 -0.18877,-4.67068 l 0,-3.08043 m 82.19905,-94.59979 0,99.3252 m -0.002,-99.26206 0,-9.20511 c 0,0 -0.12627,-2.52539 -1.13643,-4.54569 -0.60819,-1.21638 -2.0203,-3.56617 -2.90418,-4.70259 -0.88389,-1.13642 -2.01421,-2.6216 -4.36078,-4.04062 -1.10427,-0.66777 -2.91687,-1.57387 -5.48821,-2.11593 -1.83676,-0.38721 -4.91552,-0.79459 -7.95495,-0.63134 -2.15827,0.11593 -6.81853,0.50507 -6.81853,0.50507 l -26.51651,4.67196 c 0,0 -3.25509,0.47361 -5.68211,1.13642 -1.86797,0.51014 -3.15672,1.01015 -6.06091,2.65165 -1.73807,0.98239 -4.41942,2.90419 -5.3033,4.04061 -0.88388,1.13642 -2.62733,2.30434 -4.8803,5.85257 -0.72509,1.14196 -1.51523,2.39911 -2.90419,4.92449 -1.28942,2.3444 -1.6415,4.29315 -2.02031,6.18719 -0.37881,1.89403 -0.22002,3.82693 -0.22002,3.82693 l -0.013,1.85096" />
    <path
       sodipodi:type="arc"
       style="fill:none;stroke:#000000;stroke-width:1;stroke-linecap:square;stroke-linejoin:round;stroke-miterlimit:4;stroke-opacity:1;stroke-dasharray:none;stroke-dashoffset:0"
       id="path7234"
       sodipodi:cx="277.75"
       sodipodi:cy="468.11218"
       sodipodi:rx="4.75"
       sodipodi:ry="4.75"
       d="m 279.64878,463.75821 c 2.40464,1.04866 3.50387,3.84812 2.4552,6.25276 -1.04867,2.40463 -3.84813,3.50386 -6.25276,2.45519 -2.40464,-1.04867 -3.50387,-3.84813 -2.4552,-6.25276 1.04755,-2.40206 3.84251,-3.50197 6.24615,-2.45807"
       sodipodi:start="5.1236265"
       sodipodi:end="11.405294"
       sodipodi:open="true"
       transform="matrix(0,1,-1,0,810.49989,155.32312)" />
    <path
       sodipodi:type="arc"
       style="fill:none;stroke:#000000;stroke-width:1;stroke-linecap:square;stroke-linejoin:round;stroke-miterlimit:4;stroke-opacity:1;stroke-dasharray:none;stroke-dashoffset:0"
       id="path7234-2"
       sodipodi:cx="277.75"
       sodipodi:cy="468.11218"
       sodipodi:rx="4.75"
       sodipodi:ry="4.75"
       d="m 279.64878,463.75821 c 2.40464,1.04866 3.50387,3.84812 2.4552,6.25276 -1.04867,2.40463 -3.84813,3.50386 -6.25276,2.45519 -2.40464,-1.04867 -3.50387,-3.84813 -2.4552,-6.25276 1.04755,-2.40206 3.84251,-3.50197 6.24615,-2.45807"
       sodipodi:start="5.1236265"
       sodipodi:end="11.405294"
       sodipodi:open="true"
       transform="matrix(0,1,-1,0,810.49989,181.55473)" />
    <path
       sodipodi:type="arc"
       style="fill:none;stroke:#000000;stroke-width:1;stroke-linecap:square;stroke-linejoin:round;stroke-miterlimit:4;stroke-opacity:1;stroke-dasharray:none;stroke-dashoffset:0"
       id="path7234-9"
       sodipodi:cx="277.75"
       sodipodi:cy="468.11218"
       sodipodi:rx="4.75"
       sodipodi:ry="4.75"
       d="m 279.64878,463.75821 c 2.40464,1.04866 3.50387,3.84812 2.4552,6.25276 -1.04867,2.40463 -3.84813,3.50386 -6.25276,2.45519 -2.40464,-1.04867 -3.50387,-3.84813 -2.4552,-6.25276 1.04755,-2.40206 3.84251,-3.50197 6.24615,-2.45807"
       sodipodi:start="5.1236265"
       sodipodi:end="11.405294"
       sodipodi:open="true"
       transform="matrix(0,1,-1,0,810.49989,207.78636)" />
    <path
       sodipodi:type="arc"
       style="fill:none;stroke:#000000;stroke-width:1;stroke-linecap:square;stroke-linejoin:round;stroke-miterlimit:4;stroke-opacity:1;stroke-dasharray:none;stroke-dashoffset:0"
       id="path7234-6"
       sodipodi:cx="277.75"
       sodipodi:cy="468.11218"
       sodipodi:rx="4.75"
       sodipodi:ry="4.75"
       d="m 279.64878,463.75821 c 2.40464,1.04866 3.50387,3.84812 2.4552,6.25276 -1.04867,2.40463 -3.84813,3.50386 -6.25276,2.45519 -2.40464,-1.04867 -3.50387,-3.84813 -2.4552,-6.25276 1.04755,-2.40206 3.84251,-3.50197 6.24615,-2.45807"
       sodipodi:start="5.1236265"
       sodipodi:end="11.405294"
       sodipodi:open="true"
       transform="matrix(0,1,-1,0,810.49989,234.01799)" />
    <path
       sodipodi:type="arc"
       style="fill:none;stroke:#000000;stroke-width:1;stroke-linecap:square;stroke-linejoin:round;stroke-miterlimit:4;stroke-opacity:1;stroke-dasharray:none;stroke-dashoffset:0"
       id="path7234-4"
       sodipodi:cx="277.75"
       sodipodi:cy="468.11218"
       sodipodi:rx="4.75"
       sodipodi:ry="4.75"
       d="m 279.64878,463.75821 c 2.40464,1.04866 3.50387,3.84812 2.4552,6.25276 -1.04867,2.40463 -3.84813,3.50386 -6.25276,2.45519 -2.40464,-1.04867 -3.50387,-3.84813 -2.4552,-6.25276 1.04755,-2.40206 3.84251,-3.50197 6.24615,-2.45807"
       sodipodi:start="5.1236265"
       sodipodi:end="11.405294"
       sodipodi:open="true"
       transform="matrix(0,1,-1,0,810.49989,260.24961)" />
    <path
       sodipodi:type="arc"
       style="fill:none;stroke:#000000;stroke-width:1;stroke-linecap:square;stroke-linejoin:round;stroke-miterlimit:4;stroke-opacity:1;stroke-dasharray:none;stroke-dashoffset:0"
       id="path7234-44"
       sodipodi:cx="277.75"
       sodipodi:cy="468.11218"
       sodipodi:rx="4.75"
       sodipodi:ry="4.75"
       d="m 279.64878,463.75821 c 2.40464,1.04866 3.50387,3.84812 2.4552,6.25276 -1.04867,2.40463 -3.84813,3.50386 -6.25276,2.45519 -2.40464,-1.04867 -3.50387,-3.84813 -2.4552,-6.25276 1.04755,-2.40206 3.84251,-3.50197 6.24615,-2.45807"
       sodipodi:start="5.1236265"
       sodipodi:end="11.405294"
       sodipodi:open="true"
       transform="matrix(0,1,-1,0,772.13632,168.43893)" />
    <path
       sodipodi:type="arc"
       style="fill:none;stroke:#000000;stroke-width:1;stroke-linecap:square;stroke-linejoin:round;stroke-miterlimit:4;stroke-opacity:1;stroke-dasharray:none;stroke-dashoffset:0"
       id="path7234-3"
       sodipodi:cx="277.75"
       sodipodi:cy="468.11218"
       sodipodi:rx="4.75"
       sodipodi:ry="4.75"
       d="m 279.64878,463.75821 c 2.40464,1.04866 3.50387,3.84812 2.4552,6.25276 -1.04867,2.40463 -3.84813,3.50386 -6.25276,2.45519 -2.40464,-1.04867 -3.50387,-3.84813 -2.4552,-6.25276 1.04755,-2.40206 3.84251,-3.50197 6.24615,-2.45807"
       sodipodi:start="5.1236265"
       sodipodi:end="11.405294"
       sodipodi:open="true"
       transform="matrix(0,1,-1,0,772.13632,194.67055)" />
    <path
       sodipodi:type="arc"
       style="fill:none;stroke:#000000;stroke-width:1;stroke-linecap:square;stroke-linejoin:round;stroke-miterlimit:4;stroke-opacity:1;stroke-dasharray:none;stroke-dashoffset:0"
       id="path7234-99"
       sodipodi:cx="277.75"
       sodipodi:cy="468.11218"
       sodipodi:rx="4.75"
       sodipodi:ry="4.75"
       d="m 279.64878,463.75821 c 2.40464,1.04866 3.50387,3.84812 2.4552,6.25276 -1.04867,2.40463 -3.84813,3.50386 -6.25276,2.45519 -2.40464,-1.04867 -3.50387,-3.84813 -2.4552,-6.25276 1.04755,-2.40206 3.84251,-3.50197 6.24615,-2.45807"
       sodipodi:start="5.1236265"
       sodipodi:end="11.405294"
       sodipodi:open="true"
       transform="matrix(0,1,-1,0,772.13632,220.90218)" />
    <path
       sodipodi:type="arc"
       style="fill:none;stroke:#000000;stroke-width:1;stroke-linecap:square;stroke-linejoin:round;stroke-miterlimit:4;stroke-opacity:1;stroke-dasharray:none;stroke-dashoffset:0"
       id="path7234-40"
       sodipodi:cx="277.75"
       sodipodi:cy="468.11218"
       sodipodi:rx="4.75"
       sodipodi:ry="4.75"
       d="m 279.64878,463.75821 c 2.40464,1.04866 3.50387,3.84812 2.4552,6.25276 -1.04867,2.40463 -3.84813,3.50386 -6.25276,2.45519 -2.40464,-1.04867 -3.50387,-3.84813 -2.4552,-6.25276 1.04755,-2.40206 3.84251,-3.50197 6.24615,-2.45807"
       sodipodi:start="5.1236265"
       sodipodi:end="11.405294"
       sodipodi:open="true"
       transform="matrix(0,1,-1,0,772.13632,247.13381)" />
    <text
       xml:space="preserve"
       style="font-size:12px;font-style:normal;font-variant:normal;font-weight:normal;font-stretch:normal;text-align:center;line-height:125%;letter-spacing:0px;word-spacing:0px;writing-mode:lr-tb;text-anchor:middle;fill:#000000;fill-opacity:1;stroke:none;font-family:Droid Sans Pro;-inkscape-font-specification:Droid Sans Pro"
       x="353.91736"
       y="542.18762"
       id="text7826"
       sodipodi:linespacing="125%"><tspan
         sodipodi:role="line"
         id="tspan7828"
         x="353.91736"
         y="542.18762">1</tspan></text>
    <text
       xml:space="preserve"
       style="font-size:12px;font-style:normal;font-variant:normal;font-weight:normal;font-stretch:normal;text-align:center;line-height:125%;letter-spacing:0px;word-spacing:0px;writing-mode:lr-tb;text-anchor:middle;fill:#000000;fill-opacity:1;stroke:none;font-family:Droid Sans Pro;-inkscape-font-specification:Droid Sans Pro"
       x="353.41345"
       y="515.99792"
       id="text7830"
       sodipodi:linespacing="125%"><tspan
         sodipodi:role="line"
         id="tspan7832"
         x="353.41345"
         y="515.99792">2</tspan></text>
    <text
       xml:space="preserve"
       style="font-size:12px;font-style:normal;font-variant:normal;font-weight:normal;font-stretch:normal;text-align:center;line-height:125%;letter-spacing:0px;word-spacing:0px;writing-mode:lr-tb;text-anchor:middle;fill:#000000;fill-opacity:1;stroke:none;font-family:Droid Sans Pro;-inkscape-font-specification:Droid Sans Pro"
       x="353.35944"
       y="489.72433"
       id="text7834"
       sodipodi:linespacing="125%"><tspan
         sodipodi:role="line"
         id="tspan7836"
         x="353.35944"
         y="489.72433">3</tspan></text>
    <text
       xml:space="preserve"
       style="font-size:12px;font-style:normal;font-variant:normal;font-weight:normal;font-stretch:normal;text-align:center;line-height:125%;letter-spacing:0px;word-spacing:0px;writing-mode:lr-tb;text-anchor:middle;fill:#000000;fill-opacity:1;stroke:none;font-family:Droid Sans Pro;-inkscape-font-specification:Droid Sans Pro"
       x="353.17926"
       y="463.49271"
       id="text7838"
       sodipodi:linespacing="125%"><tspan
         sodipodi:role="line"
         id="tspan7840"
         x="353.17926"
         y="463.49271">4</tspan></text>
    <text
       xml:space="preserve"
       style="font-size:12px;font-style:normal;font-variant:normal;font-weight:normal;font-stretch:normal;text-align:center;line-height:125%;letter-spacing:0px;word-spacing:0px;writing-mode:lr-tb;text-anchor:middle;fill:#000000;fill-opacity:1;stroke:none;font-family:Droid Sans Pro;-inkscape-font-specification:Droid Sans Pro"
       x="353.15527"
       y="437.21918"
       id="text7842"
       sodipodi:linespacing="125%"><tspan
         sodipodi:role="line"
         id="tspan7844"
         x="353.15527"
         y="437.21918">5</tspan></text>
    <text
       xml:space="preserve"
       style="font-size:12px;font-style:normal;font-variant:normal;font-weight:normal;font-stretch:normal;text-align:center;line-height:125%;letter-spacing:0px;word-spacing:0px;writing-mode:lr-tb;text-anchor:middle;fill:#000000;fill-opacity:1;stroke:none;font-family:Droid Sans Pro;-inkscape-font-specification:Droid Sans Pro"
       x="316.31937"
       y="529.07178"
       id="text7846"
       sodipodi:linespacing="125%"><tspan
         sodipodi:role="line"
         id="tspan7848"
         x="316.31937"
         y="529.07178">6</tspan></text>
    <text
       xml:space="preserve"
       style="font-size:12px;font-style:normal;font-variant:normal;font-weight:normal;font-stretch:normal;text-align:center;line-height:125%;letter-spacing:0px;word-spacing:0px;writing-mode:lr-tb;text-anchor:middle;fill:#000000;fill-opacity:1;stroke:none;font-family:Droid Sans Pro;-inkscape-font-specification:Droid Sans Pro"
       x="316.31918"
       y="502.84015"
       id="text7850"
       sodipodi:linespacing="125%"><tspan
         sodipodi:role="line"
         id="tspan7852"
         x="316.31918"
         y="502.84015">7</tspan></text>
    <text
       xml:space="preserve"
       style="font-size:12px;font-style:normal;font-variant:normal;font-weight:normal;font-stretch:normal;text-align:center;line-height:125%;letter-spacing:0px;word-spacing:0px;writing-mode:lr-tb;text-anchor:middle;fill:#000000;fill-opacity:1;stroke:none;font-family:Droid Sans Pro;-inkscape-font-specification:Droid Sans Pro"
       x="316.31937"
       y="476.60855"
       id="text7854"
       sodipodi:linespacing="125%"><tspan
         sodipodi:role="line"
         id="tspan7856"
         x="316.31937"
         y="476.60855">8</tspan></text>
    <text
       xml:space="preserve"
       style="font-size:12px;font-style:normal;font-variant:normal;font-weight:normal;font-stretch:normal;text-align:center;line-height:125%;letter-spacing:0px;word-spacing:0px;writing-mode:lr-tb;text-anchor:middle;fill:#000000;fill-opacity:1;stroke:none;font-family:Droid Sans Pro;-inkscape-font-specification:Droid Sans Pro"
       x="316.31937"
       y="450.37692"
       id="text7858"
       sodipodi:linespacing="125%"><tspan
         sodipodi:role="line"
         id="tspan7860"
         x="316.31937"
         y="450.37692">9</tspan></text>
  </g>
</svg>
